<svg width="18" height="18" viewBox="0 0 18 18" fill="none" xmlns="http://www.w3.org/2000/svg">
<path d="M15.4023 0.75H2.59766C1.56641 0.75 0.75 1.56641 0.75 2.59766V15.4023C0.75 16.4336 1.56641 17.25 2.59766 17.25H15.4023C16.4336 17.25 17.25 16.4336 17.25 15.4023V2.59766C17.25 1.56641 16.4336 0.75 15.4023 0.75ZM15.4023 15.4023H2.59766V12.6523H5.86328C6.46484 13.7695 7.66797 14.5 9 14.5C10.375 14.5 11.5352 13.7695 12.1797 12.6523H15.4023V15.4023ZM15.4023 10.8477H10.8477C10.8477 11.8359 10.0312 12.6523 9 12.6523C8.01172 12.6523 7.19531 11.8359 7.19531 10.8477H2.59766V2.59766H15.4023V10.8477Z" fill="#747A80"/>
</svg>
