<svg width="20" height="20" viewBox="0 0 20 20" fill="none" xmlns="http://www.w3.org/2000/svg">
<path d="M10.9023 5.40234H9.09766V9.09766H5.40234V10.9023H9.09766V14.5977H10.9023V10.9023H14.5977V9.09766H10.9023V5.40234ZM10 0.847656C4.92969 0.847656 0.847656 4.92969 0.847656 10C0.847656 15.0703 4.92969 19.1523 10 19.1523C15.0703 19.1523 19.1523 15.0703 19.1523 10C19.1523 4.92969 15.0703 0.847656 10 0.847656ZM10 17.3477C5.96094 17.3477 2.65234 14.0391 2.65234 10C2.65234 5.96094 5.96094 2.65234 10 2.65234C14.0391 2.65234 17.3477 5.96094 17.3477 10C17.3477 14.0391 14.0391 17.3477 10 17.3477Z" fill="#747A80"/>
</svg>
