<svg width="13" height="16" viewBox="0 0 13 16" fill="none" xmlns="http://www.w3.org/2000/svg">
<path d="M4.48828 1.98828C7.79297 1.98828 10.5 4.69531 10.5 8C10.5 11.3047 7.79297 14.0117 4.48828 14.0117C4.24219 14.0117 3.99609 13.9766 3.75 13.9414C5.19141 12.3242 6 10.2148 6 8C6 5.78516 5.19141 3.67578 3.75 2.05859C3.99609 2.02344 4.24219 1.98828 4.48828 1.98828ZM4.48828 0.511719C3.15234 0.511719 1.85156 0.863281 0.761719 1.49609C2.97656 2.79688 4.48828 5.22266 4.48828 8C4.48828 10.7773 2.97656 13.2031 0.761719 14.5039C1.85156 15.1367 3.15234 15.4883 4.48828 15.4883C8.63672 15.4883 12.0117 12.1484 12.0117 8C12.0117 3.85156 8.63672 0.511719 4.48828 0.511719Z" fill="black"/>
</svg>
