<svg width="44" height="44" viewBox="0 0 44 44" fill="none" xmlns="http://www.w3.org/2000/svg">
  <rect width="44" height="44" rx="22" fill="black"/>
  <mask id="mask0_39_46" style="mask-type:luminance" maskUnits="userSpaceOnUse" x="0" y="0" width="44" height="44">
    <rect width="44" height="44" rx="22" fill="white"/>
  </mask>
  <g mask="url(#mask0_39_46)">
    <rect width="44" height="44" fill="#0052FF"/>
    <rect x="12.7188" y="9.625" width="7.21875" height="4.125" fill="white"/>
    <path d="M15.125 32.3125V11.6875H23.9973C25.5228 11.6875 26.8577 11.9896 28.0018 12.5939C29.146 13.1981 30.0359 14.0474 30.6715 15.1418C31.3072 16.2361 31.625 17.5151 31.625 18.9788C31.625 20.4558 31.2988 21.7348 30.6464 22.8157C29.9941 23.8967 29.0807 24.7292 27.9065 25.3133C26.7322 25.8974 25.3622 26.1895 23.7965 26.1895H18.4973V21.8389H22.6724C23.3282 21.8389 23.8885 21.7231 24.3536 21.4914C24.8186 21.2598 25.1766 20.9291 25.4275 20.4995C25.6784 20.0698 25.8038 19.5629 25.8038 18.9788C25.8038 18.3879 25.6784 17.8827 25.4275 17.4631C25.1766 17.0435 24.8186 16.7212 24.3536 16.4963C23.8885 16.2714 23.3282 16.1589 22.6724 16.1589H20.7053V32.3125H15.125Z" fill="white"/>
  </g>
</svg>

