<svg width="14" height="16" viewBox="0 0 14 16" fill="none" xmlns="http://www.w3.org/2000/svg">
<path d="M7 15.4883C7.80859 15.4883 8.51172 14.8203 8.51172 14.0117H5.48828C5.48828 14.8203 6.19141 15.4883 7 15.4883ZM11.5 10.9883V7.26172C11.5 4.94141 10.2695 3.00781 8.125 2.51562V1.98828C8.125 1.39062 7.63281 0.863281 7 0.863281C6.36719 0.863281 5.875 1.39062 5.875 1.98828V2.51562C3.73047 3.00781 2.5 4.94141 2.5 7.26172V10.9883L0.988281 12.5V13.2383H13.0117V12.5L11.5 10.9883ZM9.98828 11.7617H4.01172V7.26172C4.01172 5.39844 5.13672 3.88672 7 3.88672C8.86328 3.88672 9.98828 5.39844 9.98828 7.26172V11.7617Z" fill="black"/>
</svg>
