<svg width="14" height="15" viewBox="0 0 14 15" fill="none" xmlns="http://www.w3.org/2000/svg">
<path d="M12.625 1.13672L11.5 0.0117188L10.375 1.13672L9.25 0.0117188L8.125 1.13672L7 0.0117188L5.875 1.13672L4.75 0.0117188L3.625 1.13672L2.5 0.0117188V10.4883H0.25V12.7383C0.25 14.0039 1.26953 14.9883 2.5 14.9883H11.5C12.7305 14.9883 13.75 14.0039 13.75 12.7383V0.0117188L12.625 1.13672ZM9.25 13.5117H2.5C2.07812 13.5117 1.76172 13.1602 1.76172 12.7383V12H9.25V13.5117ZM12.2383 12.7383C12.2383 13.1602 11.9219 13.5117 11.5 13.5117C11.0781 13.5117 10.7617 13.1602 10.7617 12.7383V10.4883H4.01172V2.26172H12.2383V12.7383ZM4.75 3.73828H9.25V5.25H4.75V3.73828ZM9.98828 3.73828H11.5V5.25H9.98828V3.73828ZM4.75 5.98828H9.25V7.5H4.75V5.98828ZM9.98828 5.98828H11.5V7.5H9.98828V5.98828Z" fill="black"/>
</svg>
