<svg width="14" height="14" viewBox="0 0 14 14" fill="none" xmlns="http://www.w3.org/2000/svg">
<path d="M9.63672 9.01172H9.03906L8.82812 8.80078C9.56641 7.95703 9.98828 6.83203 9.98828 5.63672C9.98828 2.92969 7.80859 0.75 5.13672 0.75C2.42969 0.75 0.25 2.92969 0.25 5.63672C0.25 8.30859 2.42969 10.4883 5.13672 10.4883C6.33203 10.4883 7.45703 10.0664 8.30078 9.32812L8.51172 9.53906V10.1367L12.2383 13.8633L13.3633 12.7383L9.63672 9.01172ZM5.13672 9.01172C3.27344 9.01172 1.76172 7.5 1.76172 5.63672C1.76172 3.77344 3.27344 2.26172 5.13672 2.26172C7 2.26172 8.51172 3.77344 8.51172 5.63672C8.51172 7.5 7 9.01172 5.13672 9.01172Z" fill="black"/>
</svg>
