<svg width="18" height="20" viewBox="0 0 18 20" fill="none" xmlns="http://www.w3.org/2000/svg">
<path d="M15.832 10.9023C15.832 10.6016 15.875 10.3008 15.875 10C15.875 9.69922 15.832 9.39844 15.832 9.09766L17.7656 7.59375C17.9375 7.46484 17.9805 7.20703 17.8516 6.99219L16.0039 3.8125C15.918 3.68359 15.7891 3.59766 15.6172 3.59766C15.5742 3.59766 15.4883 3.59766 15.4453 3.64062L13.168 4.54297C12.6953 4.19922 12.1797 3.85547 11.6211 3.64062L11.2773 1.23438C11.2344 1.01953 11.0625 0.847656 10.8477 0.847656H7.15234C6.9375 0.847656 6.76562 1.01953 6.72266 1.23438L6.37891 3.64062C5.82031 3.85547 5.30469 4.19922 4.83203 4.54297L2.55469 3.64062C2.46875 3.59766 2.42578 3.59766 2.38281 3.59766C2.21094 3.59766 2.08203 3.68359 1.99609 3.8125L0.148438 6.99219C0.0195312 7.20703 0.0625 7.46484 0.234375 7.59375L2.16797 9.09766C2.16797 9.39844 2.125 9.69922 2.125 10C2.125 10.3008 2.16797 10.6016 2.16797 10.9023L0.234375 12.4062C0.0625 12.5352 0.0195312 12.793 0.148438 13.0078L1.99609 16.1875C2.08203 16.3164 2.21094 16.4023 2.38281 16.4023C2.42578 16.4023 2.51172 16.4023 2.55469 16.3594L4.83203 15.457C5.30469 15.8008 5.82031 16.1445 6.37891 16.3594L6.72266 18.7656C6.76562 18.9805 6.9375 19.1523 7.15234 19.1523H10.8477C11.0625 19.1523 11.2344 18.9805 11.2773 18.7656L11.6211 16.3594C12.1797 16.1445 12.6953 15.8008 13.168 15.457L15.4453 16.3594C15.5312 16.4023 15.5742 16.4023 15.6172 16.4023C15.7891 16.4023 15.918 16.3164 16.0039 16.1875L17.8516 13.0078C17.9805 12.793 17.9375 12.5352 17.7656 12.4062L15.832 10.9023ZM13.9844 9.3125C14.0273 9.61328 14.0273 9.82812 14.0273 10C14.0273 10.1719 14.0273 10.3867 13.9844 10.6875L13.8555 11.7188L14.6719 12.3633L15.6602 13.1367L15.0156 14.2109L13.8555 13.7383L12.9102 13.3945L12.0938 13.9961C11.707 14.2969 11.3203 14.5117 10.9336 14.6836L9.98828 15.0703L9.81641 16.1016L9.64453 17.3477H8.35547L8.18359 16.1016L8.05469 15.0703L7.06641 14.6836C6.67969 14.5117 6.29297 14.2969 5.94922 13.9961L5.08984 13.3945L4.14453 13.7812L2.98438 14.2539L2.33984 13.1367L3.32812 12.3633L4.14453 11.7188L4.01562 10.6875C3.97266 10.3867 3.97266 10.1719 3.97266 10C3.97266 9.82812 3.97266 9.61328 4.01562 9.3125L4.14453 8.28125L3.32812 7.63672L2.33984 6.86328L2.98438 5.78906L4.14453 6.26172L5.08984 6.60547L5.90625 6.00391C6.29297 5.70312 6.67969 5.48828 7.06641 5.31641L8.01172 4.92969L8.18359 3.89844L8.35547 2.65234H9.64453L9.81641 3.89844L9.94531 4.92969L10.9336 5.31641C11.3203 5.48828 11.707 5.70312 12.0508 6.00391L12.8672 6.60547L13.8555 6.21875L15.0156 5.74609L15.6602 6.86328L14.6719 7.63672L13.8555 8.28125L13.9844 9.3125ZM9 6.34766C6.98047 6.34766 5.34766 7.98047 5.34766 10C5.34766 12.0195 6.98047 13.6523 9 13.6523C11.0195 13.6523 12.6523 12.0195 12.6523 10C12.6523 7.98047 11.0195 6.34766 9 6.34766ZM9 11.8477C8.01172 11.8477 7.15234 10.9883 7.15234 10C7.15234 9.01172 8.01172 8.15234 9 8.15234C9.98828 8.15234 10.8477 9.01172 10.8477 10C10.8477 10.9883 9.98828 11.8477 9 11.8477Z" fill="#747A80"/>
</svg>
