<svg width="14" height="13" viewBox="0 0 14 13" fill="none" xmlns="http://www.w3.org/2000/svg">
  <path d="M10.7617 0.488281L13.75 3.51172L10.7617 6.5V4.25H7.73828V2.73828H10.7617V0.488281ZM5.48828 2.73828C5.10156 2.73828 4.75 3.08984 4.75 3.51172C4.75 3.89844 5.10156 4.25 5.48828 4.25C5.91016 4.25 6.26172 3.89844 6.26172 3.51172C6.26172 3.08984 5.91016 2.73828 5.48828 2.73828ZM2.5 2.73828C2.07812 2.73828 1.76172 3.08984 1.76172 3.51172C1.76172 3.89844 2.07812 4.25 2.5 4.25C2.92188 4.25 3.23828 3.89844 3.23828 3.51172C3.23828 3.08984 2.92188 2.73828 2.5 2.73828ZM3.23828 10.2617H6.26172V8.75H3.23828V6.5L0.25 9.48828L3.23828 12.5117V10.2617ZM8.51172 10.2617C8.89844 10.2617 9.25 9.91016 9.25 9.48828C9.25 9.10156 8.89844 8.75 8.51172 8.75C8.08984 8.75 7.73828 9.10156 7.73828 9.48828C7.73828 9.91016 8.08984 10.2617 8.51172 10.2617ZM11.5 10.2617C11.9219 10.2617 12.2383 9.91016 12.2383 9.48828C12.2383 9.10156 11.9219 8.75 11.5 8.75C11.0781 8.75 10.7617 9.10156 10.7617 9.48828C10.7617 9.91016 11.0781 10.2617 11.5 10.2617Z" fill="black"/>
</svg>
