<svg width="14" height="15" viewBox="0 0 14 15" fill="none" xmlns="http://www.w3.org/2000/svg">
  <path
    d="M9.25 14.25H7.73828V12.7383H9.25V14.25ZM7.73828 9.01172H6.26172V12.7383H7.73828V9.01172ZM13.75 7.5H12.2383V10.4883H13.75V7.5ZM12.2383 5.98828H10.7617V7.5H12.2383V5.98828ZM3.23828 7.5H1.76172V9.01172H3.23828V7.5ZM1.76172 5.98828H0.25V7.5H1.76172V5.98828ZM7 2.26172H8.51172V0.75H7V2.26172ZM1.375 1.875V4.125H3.625V1.875H1.375ZM4.75 5.25H0.25V0.75H4.75V5.25ZM1.375 10.875V13.125H3.625V10.875H1.375ZM4.75 14.25H0.25V9.75H4.75V14.25ZM10.375 1.875V4.125H12.625V1.875H10.375ZM13.75 5.25H9.25V0.75H13.75V5.25ZM12.2383 12.7383V10.4883H9.25V12H10.7617V14.25H13.75V12.7383H12.2383ZM10.7617 7.5H7.73828V9.01172H10.7617V7.5ZM7.73828 5.98828H3.23828V7.5H4.75V9.01172H6.26172V7.5H7.73828V5.98828ZM8.51172 5.25V3.73828H7V2.26172H5.48828V5.25H8.51172ZM3.0625 2.4375H1.9375V3.5625H3.0625V2.4375ZM3.0625 11.4375H1.9375V12.5625H3.0625V11.4375ZM12.0625 2.4375H10.9375V3.5625H12.0625V2.4375Z"
    fill="black"/>
</svg>
